<?xml version="1.0" encoding="UTF-8"?>
<svg id="_Слой_2" data-name="Слой 2" xmlns="http://www.w3.org/2000/svg" viewBox="0 0 487.82 114.31">
  <defs>
    <style>
      .cls-1 {
        fill: #ff181f;
      }
    </style>
  </defs>
  <g id="_Слой_1-2" data-name="Слой 1">
    <g>
      <path class="cls-1" d="M100.14,17.64c6.55,0,13.4,2.51,19.41,7.78l8.23-16.21C119.74,2.66,111.27.05,100.38.05c-20.49,0-30.59,10.54-30.59,25.22,0,12.81,6.45,20.74,20.99,25.72l4.73,1.63c7.73,2.61,10.25,3.94,10.25,7.49,0,3.74-2.32,5.81-9.06,5.81-7.64,0-14.48-2.66-20.84-8.18l-8.38,16.16c9.06,6.9,18.28,9.66,29.07,9.66,19.51,0,30.54-8.97,30.54-26.11,0-12.61-4.98-19.26-22.37-24.78l-4.14-1.33c-6.4-2.07-8.87-4.14-8.87-7.83s2.46-5.86,8.42-5.86Z"/>
      <path class="cls-1" d="M177.07,48.82c7.98-4.34,11.77-12.46,11.77-22.91,0-15.71-7.09-24.34-25.32-24.34h-32.61v80.45h20.49v-29.66h6.11l12.17,29.66h22.51l-15.12-33.2ZM160.67,36.01h-9.26v-16.7h9.36c5.67,0,7.64,2.71,7.64,7.73,0,5.91-2.12,8.97-7.73,8.97Z"/>
      <path class="cls-1" d="M252.25,41.77c0-28.52-10.94-41.77-30.94-41.77s-30.99,13.25-30.99,41.77,10.94,41.78,30.99,41.78,30.94-13.25,30.94-41.78ZM221.32,64.63c-5.76,0-8.92-5.91-8.92-22.86s3.15-22.86,8.92-22.86,8.87,5.91,8.87,22.86-3.15,22.86-8.87,22.86Z"/>
      <path class="cls-1" d="M292,53.89c0,7.14-1.68,11.63-7.83,11.63s-7.78-4.73-7.78-11.63V1.58h-21.33v50.74c0,22.12,10.69,31.23,29.11,31.23s29.11-9.12,29.11-31.23V1.58h-21.28v52.32Z"/>
      <polygon class="cls-1" points="315.34 20.54 334.75 20.54 334.75 82.02 357.17 82.02 357.17 20.54 376.58 20.54 376.58 1.58 315.34 1.58 315.34 20.54"/>
      <polygon class="cls-1" points="401.93 51 430.15 51 430.08 32.1 401.85 32.1 401.86 19.75 434.13 19.75 434.13 1.58 379.44 1.58 379.44 82.02 487.13 82.02 487.13 63.8 401.86 63.8 401.93 51"/>
      <path class="cls-1" d="M462.57,50.99c13.97-.13,25.25-11.49,25.25-25.49S476.4,0,462.32,0s-25.5,11.42-25.5,25.5c0,.5.02,1,.05,1.5h19c-.11-.48-.18-.98-.18-1.5,0-3.66,2.97-6.63,6.63-6.63s6.63,2.97,6.63,6.63-2.84,6.48-6.38,6.62v-.02h-28v18.9h28Z"/>
      <path class="cls-1" d="M18.03,1.58L0,82.02h21.33l12.02-60.2c.21-1.14.42-2.32.64-3.55h.07l.1-.51.1.51h.07c.23,1.26.44,2.47.65,3.64l12.01,60.11h21.33L50.35,1.58H18.03Z"/>
      <polygon class="cls-1" points="14.15 113.94 17.01 113.94 17.01 109.04 21.73 109.04 21.73 106.84 17.01 106.84 17.01 104.01 22.34 104.01 22.34 101.67 14.15 101.67 14.15 113.94"/>
      <polygon class="cls-1" points="25.26 113.94 33.46 113.94 33.46 111.6 28.12 111.6 28.12 108.79 32.85 108.79 32.85 106.58 28.12 106.58 28.12 104.02 33.46 104.02 33.46 101.68 25.26 101.68 25.26 113.94"/>
      <polygon class="cls-1" points="36.14 104.11 39.24 104.11 39.24 113.94 42.09 113.94 42.09 104.11 45.19 104.11 45.19 101.68 36.14 101.68 36.14 104.11"/>
      <path class="cls-1" d="M52.3,103.76c.94,0,1.5.66,1.74,2.36l2.79-.65c-.53-2.84-2.03-4.04-4.53-4.04-3.63,0-5.02,2.84-5.02,6.37s1.39,6.37,5.02,6.37c2.45,0,3.93-1.24,4.51-4.1l-2.76-.62c-.23,1.7-.79,2.4-1.75,2.4-1.33,0-2.03-1.42-2.03-4.05s.71-4.05,2.03-4.05Z"/>
      <polygon class="cls-1" points="65.3 106.36 62.05 106.36 62.05 101.68 59.38 101.68 59.38 113.94 62.05 113.94 62.05 108.72 65.3 108.72 65.3 113.94 67.97 113.94 67.97 101.68 65.3 101.68 65.3 106.36"/>
      <path class="cls-1" d="M91.68,107.69l-2.08-.13c0,.75-.11,1.43-.32,2.04l-1.85-2.06c1.37-.89,2.23-1.76,2.23-3.34,0-1.79-1.14-2.75-2.94-2.75-2.19,0-3.36,1.41-3.36,3.15,0,1.01.37,1.84.89,2.6-1.1.67-1.99,1.57-1.99,3.32,0,2.24,1.48,3.66,3.96,3.66,1.28,0,2.39-.38,3.25-1.07l1.1,1.21,1.48-1.64-1.18-1.31c.53-1.01.8-2.26.8-3.66ZM86.62,103.27c.5,0,.8.34.8,1.05,0,.84-.54,1.37-1.21,1.8-.34-.46-.55-.95-.55-1.58,0-.75.35-1.28.96-1.28ZM86.48,112.09c-.99,0-1.64-.65-1.64-1.76,0-.69.3-1.16.74-1.55.02,0,.02.02.04.04l2.43,2.69c-.47.38-1,.58-1.56.58Z"/>
      <path class="cls-1" d="M111.17,105.19c-.23.86-.44,1.72-.63,2.58h-.02c-.19-.86-.41-1.73-.63-2.58l-.94-3.51h-3.02v12.26h2.2v-8.66h0c.22.84.35,1.29.6,2.28l1.08,3.9h1.42l1.07-3.9c.26-.98.38-1.43.6-2.28h0v8.66h2.2v-12.26h-3.01l-.94,3.51Z"/>
      <polygon class="cls-1" points="118.18 113.94 126.38 113.94 126.38 111.6 121.03 111.6 121.03 108.79 125.76 108.79 125.76 106.58 121.03 106.58 121.03 104.02 126.38 104.02 126.38 101.68 118.18 101.68 118.18 113.94"/>
      <path class="cls-1" d="M138.06,105.37c0-2.31-1.09-3.69-3.86-3.69h-4.71v12.26h2.66v-4.67h1.41l1.98,4.67h2.94l-2.36-5.09c1.33-.62,1.93-1.86,1.93-3.48ZM133.89,107.15h-1.74v-3.19h1.78c1.1,0,1.46.55,1.46,1.49,0,1.11-.41,1.7-1.5,1.7Z"/>
      <path class="cls-1" d="M145.59,103.86c.95,0,1.57.53,2.04,1.76l2.08-1.35c-.75-1.97-2.15-2.83-4.19-2.83-3.72,0-5.08,2.88-5.08,6.34,0,3.68,1.59,6.4,4.56,6.4,1.32,0,2.3-.57,2.87-1.64l.35,1.4h1.46v-6.9h-4.54v2.22h1.99v1.35c-.41.85-.96,1.15-1.61,1.15-1.5,0-2.21-1.35-2.21-3.94s.72-3.96,2.27-3.96Z"/>
      <polygon class="cls-1" points="152.76 113.94 160.96 113.94 160.96 111.6 155.62 111.6 155.62 108.79 160.35 108.79 160.35 106.58 155.62 106.58 155.62 104.02 160.96 104.02 160.96 101.68 152.76 101.68 152.76 113.94"/>
      <path class="cls-1" d="M178.18,101.68l-3.03,12.26h2.78l.57-2.44h3.46l.57,2.44h2.78l-3.03-12.26h-4.11ZM179.02,109.23l.24-1.01c.34-1.45.59-2.6.94-4.35h.05c.35,1.74.6,2.9.94,4.35l.24,1.01h-2.41Z"/>
      <path class="cls-1" d="M193.14,109.64c0,1.39-.35,2.22-1.58,2.22s-1.58-.9-1.58-2.22v-7.96h-2.72v7.78c0,3.2,1.39,4.71,4.29,4.71s4.29-1.52,4.29-4.71v-7.78h-2.72v7.96Z"/>
      <polygon class="cls-1" points="198.46 104.11 201.56 104.11 201.56 113.94 204.41 113.94 204.41 104.11 207.51 104.11 207.51 101.68 198.46 101.68 198.46 104.11"/>
      <path class="cls-1" d="M214.35,101.45c-3.01,0-4.66,2.12-4.66,6.37s1.65,6.36,4.66,6.36,4.65-2.12,4.65-6.36-1.65-6.37-4.65-6.37ZM214.35,111.78c-1.16,0-1.79-1.12-1.79-3.96s.63-3.97,1.79-3.97,1.79,1.12,1.79,3.97-.63,3.96-1.79,3.96Z"/>
      <path class="cls-1" d="M227.98,110.73h-.02c-.24-1.01-.46-1.84-.69-2.58l-2.05-6.46h-3.46v12.26h2.27l.02-9.05h.02c.24,1.01.46,1.84.69,2.58l2.05,6.46h3.46v-12.26h-2.27l-.02,9.05Z"/>
      <path class="cls-1" d="M237.68,101.45c-3.01,0-4.66,2.12-4.66,6.37s1.65,6.36,4.66,6.36,4.65-2.12,4.65-6.36-1.65-6.37-4.65-6.37ZM237.68,111.78c-1.16,0-1.79-1.12-1.79-3.96s.63-3.97,1.79-3.97,1.79,1.12,1.79,3.97-.63,3.96-1.79,3.96Z"/>
      <path class="cls-1" d="M250.18,105.19c-.23.86-.44,1.72-.63,2.58h-.02c-.19-.86-.41-1.73-.63-2.58l-.94-3.51h-3.02v12.26h2.2v-8.66h0c.22.84.35,1.29.6,2.28l1.08,3.9h1.42l1.07-3.9c.26-.98.38-1.43.6-2.28h0v8.66h2.2v-12.26h-3.01l-.94,3.51Z"/>
      <path class="cls-1" d="M261.35,101.45c-3.01,0-4.66,2.12-4.66,6.37s1.65,6.36,4.66,6.36,4.65-2.12,4.65-6.36-1.65-6.37-4.65-6.37ZM261.35,111.78c-1.16,0-1.79-1.12-1.79-3.96s.63-3.97,1.79-3.97,1.79,1.12,1.79,3.97-.63,3.96-1.79,3.96Z"/>
      <path class="cls-1" d="M274.55,109.64c0,1.39-.35,2.22-1.58,2.22s-1.58-.9-1.58-2.22v-7.96h-2.72v7.78c0,3.2,1.39,4.71,4.29,4.71s4.29-1.52,4.29-4.71v-7.78h-2.72v7.96Z"/>
      <path class="cls-1" d="M284.6,103.75c1.09,0,2.07.44,2.78,1.36l1.46-1.95c-1.07-1.19-2.37-1.71-4.16-1.71-2.96,0-4.5,1.54-4.5,3.71,0,2,1.03,3.09,3.21,3.8l.87.29c1.22.39,1.65.68,1.65,1.43s-.5,1.19-1.67,1.19-2.22-.52-3.03-1.55l-1.52,2.03c1.22,1.27,2.62,1.84,4.49,1.84,2.94,0,4.49-1.49,4.49-3.84,0-1.81-.7-2.8-3.34-3.64l-.79-.26c-1.13-.37-1.53-.77-1.53-1.52s.47-1.17,1.6-1.17Z"/>
      <path class="cls-1" d="M308,103.75c1.09,0,2.07.44,2.78,1.36l1.46-1.95c-1.07-1.19-2.36-1.71-4.16-1.71-2.96,0-4.5,1.54-4.5,3.71,0,2,1.03,3.09,3.21,3.8l.87.29c1.22.39,1.65.68,1.65,1.43s-.5,1.19-1.67,1.19-2.22-.52-3.03-1.55l-1.52,2.03c1.22,1.27,2.62,1.84,4.49,1.84,2.94,0,4.49-1.49,4.49-3.84,0-1.81-.7-2.8-3.34-3.64l-.79-.26c-1.13-.37-1.53-.77-1.53-1.52s.47-1.17,1.6-1.17Z"/>
      <polygon class="cls-1" points="319.25 107.1 317.1 101.68 314.12 101.68 317.82 109.71 317.82 113.94 320.66 113.94 320.66 109.71 324.37 101.68 321.38 101.68 319.25 107.1"/>
      <path class="cls-1" d="M330.69,103.75c1.09,0,2.07.44,2.78,1.36l1.46-1.95c-1.07-1.19-2.37-1.71-4.16-1.71-2.96,0-4.5,1.54-4.5,3.71,0,2,1.03,3.09,3.21,3.8l.87.29c1.22.39,1.65.68,1.65,1.43s-.5,1.19-1.67,1.19-2.22-.52-3.03-1.55l-1.52,2.03c1.22,1.27,2.62,1.84,4.49,1.84,2.94,0,4.49-1.49,4.49-3.84,0-1.81-.7-2.8-3.34-3.64l-.79-.26c-1.13-.37-1.53-.77-1.53-1.52s.47-1.17,1.6-1.17Z"/>
      <polygon class="cls-1" points="337.38 104.11 340.48 104.11 340.48 113.94 343.33 113.94 343.33 104.11 346.43 104.11 346.43 101.68 337.38 101.68 337.38 104.11"/>
      <polygon class="cls-1" points="349.15 113.94 357.35 113.94 357.35 111.6 352.01 111.6 352.01 108.79 356.74 108.79 356.74 106.58 352.01 106.58 352.01 104.02 357.35 104.02 357.35 101.68 349.15 101.68 349.15 113.94"/>
      <path class="cls-1" d="M365.53,105.19c-.23.86-.44,1.72-.63,2.58h-.02c-.19-.86-.41-1.73-.63-2.58l-.94-3.51h-3.02v12.26h2.2v-8.66h0c.22.84.34,1.29.6,2.28l1.08,3.9h1.42l1.07-3.9c.26-.98.38-1.43.6-2.28h0v8.66h2.2v-12.26h-3.01l-.94,3.51Z"/>
      <path class="cls-1" d="M390.21,110.73h-.02c-.24-1.01-.46-1.84-.69-2.58l-2.05-6.46h-3.46v12.26h2.28v-9.05h.04c.24,1.01.46,1.84.69,2.58l2.05,6.46h3.46v-12.26h-2.27l-.02,9.05Z"/>
      <polygon class="cls-1" points="395.76 113.94 403.95 113.94 403.95 111.6 398.61 111.6 398.61 108.79 403.34 108.79 403.34 106.58 398.61 106.58 398.61 104.02 403.95 104.02 403.95 101.68 395.76 101.68 395.76 113.94"/>
      <polygon class="cls-1" points="406.63 104.11 409.73 104.11 409.73 113.94 412.58 113.94 412.58 104.11 415.68 104.11 415.68 101.68 406.63 101.68 406.63 104.11"/>
      <path class="cls-1" d="M425.56,107.58c-.12,1.51-.23,2.61-.33,3.97h-.03c-.13-1.34-.27-2.73-.39-3.96l-.49-4.41h-2.46l-.49,4.41c-.12,1.23-.26,2.62-.39,3.96h-.03c-.11-1.36-.21-2.46-.33-3.97l-.53-5.9h-2.33l1.47,12.26h3.06l.47-3.73c.12-1.19.22-2.35.32-3.49h.04c.1,1.14.2,2.3.32,3.49l.46,3.73h3.06l1.47-12.26h-2.33l-.53,5.9Z"/>
      <path class="cls-1" d="M434.89,101.45c-3.01,0-4.66,2.12-4.66,6.37s1.65,6.36,4.66,6.36,4.66-2.12,4.66-6.36-1.65-6.37-4.66-6.37ZM434.89,111.78c-1.16,0-1.79-1.12-1.79-3.96s.63-3.97,1.79-3.97,1.79,1.12,1.79,3.97-.63,3.96-1.79,3.96Z"/>
      <path class="cls-1" d="M450.88,105.37c0-2.31-1.09-3.69-3.86-3.69h-4.71v12.26h2.66v-4.67h1.41l1.98,4.67h2.94l-2.36-5.09c1.33-.62,1.93-1.86,1.93-3.48ZM446.72,107.15h-1.74v-3.19h1.78c1.1,0,1.46.55,1.46,1.49,0,1.11-.41,1.7-1.5,1.7Z"/>
      <polygon class="cls-1" points="462.89 101.68 459.63 101.68 456.5 106.79 456.5 101.68 453.76 101.68 453.76 113.94 456.5 113.94 456.5 110.41 457.69 108.66 459.94 113.94 463.19 113.94 459.66 106.57 462.89 101.68"/>
      <path class="cls-1" d="M469.97,103.75c1.09,0,2.07.44,2.78,1.36l1.46-1.95c-1.07-1.19-2.37-1.71-4.16-1.71-2.96,0-4.5,1.54-4.5,3.71,0,2,1.03,3.09,3.21,3.8l.87.29c1.22.39,1.65.68,1.65,1.43s-.5,1.19-1.67,1.19-2.22-.52-3.03-1.55l-1.52,2.03c1.22,1.27,2.62,1.84,4.49,1.84,2.94,0,4.49-1.49,4.49-3.84,0-1.81-.7-2.8-3.34-3.64l-.79-.26c-1.13-.37-1.53-.77-1.53-1.52s.47-1.17,1.6-1.17Z"/>
    </g>
  </g>
</svg>